<svg width="16" height="16" viewBox="0 0 16 16" fill="none" xmlns="http://www.w3.org/2000/svg">
<mask id="path-1-inside-1_160_55716" fill="white">
<path fill-rule="evenodd" clip-rule="evenodd" d="M13 1H3V15L8 10L13 15V1Z"/>
</mask>
<path d="M3 1V-0.5H1.5V1H3ZM13 1H14.5V-0.5H13V1ZM3 15H1.5V18.6213L4.06066 16.0607L3 15ZM8 10L9.06066 8.93934L8 7.87868L6.93934 8.93934L8 10ZM13 15L11.9393 16.0607L14.5 18.6213V15H13ZM3 2.5H13V-0.5H3V2.5ZM4.5 15V1H1.5V15H4.5ZM6.93934 8.93934L1.93934 13.9393L4.06066 16.0607L9.06066 11.0607L6.93934 8.93934ZM14.0607 13.9393L9.06066 8.93934L6.93934 11.0607L11.9393 16.0607L14.0607 13.9393ZM11.5 1V15H14.5V1H11.5Z" fill="#141414" mask="url(#path-1-inside-1_160_55716)"/>
</svg>
