<svg width="16" height="16" viewBox="0 0 16 16" fill="none" xmlns="http://www.w3.org/2000/svg">
<path fill-rule="evenodd" clip-rule="evenodd" d="M6.83249 13.793C8.49853 14.041 10.2554 13.5227 11.5361 12.2421C13.6839 10.0942 13.6839 6.61176 11.5361 4.46388C9.38818 2.316 5.90577 2.316 3.75789 4.46388C2.47747 5.7443 1.95917 7.50077 2.20678 9.16655L4.78014 7.85733C6.93728 6.75986 9.23943 9.06202 8.14197 11.2192L6.83249 13.793ZM6.12373 15.1861C8.38181 15.6873 10.84 15.0595 12.5967 13.3027C15.3304 10.569 15.3304 6.13689 12.5967 3.40322C9.86305 0.669549 5.4309 0.669549 2.69723 3.40322C0.940712 5.15973 0.312842 7.61749 0.813616 9.87533C0.922511 10.3663 1.08478 10.8478 1.30041 11.3106L5.46031 9.19425C6.32317 8.75526 7.24403 9.67613 6.80504 10.539L4.68851 14.6992C5.15128 14.9149 5.63278 15.0772 6.12373 15.1861Z" fill="#141414"/>
<path d="M8.66093 5.9248C9.05145 5.53427 9.68462 5.53427 10.0751 5.9248C10.4657 6.31532 10.4657 6.94849 10.0751 7.33901C9.68462 7.72954 9.05145 7.72954 8.66093 7.33901C8.2704 6.94849 8.2704 6.31532 8.66093 5.9248Z" fill="#141414"/>
<path d="M4.94862 5.04092C5.33914 4.65039 5.9723 4.65039 6.36283 5.04092C6.75335 5.43144 6.75335 6.0646 6.36283 6.45513C5.9723 6.84565 5.33914 6.84565 4.94862 6.45513C4.55809 6.0646 4.55809 5.43144 4.94862 5.04092Z" fill="#141414"/>
<path d="M9.54481 9.63711C9.93533 9.24659 10.5685 9.24659 10.959 9.63711C11.3495 10.0276 11.3495 10.6608 10.959 11.0513C10.5685 11.4418 9.93533 11.4418 9.54481 11.0513C9.15429 10.6608 9.15429 10.0276 9.54481 9.63711Z" fill="#141414"/>
</svg>
