<svg width="16" height="16" viewBox="0 0 16 16" fill="none" xmlns="http://www.w3.org/2000/svg">
<mask id="path-1-inside-1_15_2638" fill="white">
<path fill-rule="evenodd" clip-rule="evenodd" d="M15 8L8 1L1 8V15H7.0022V10H8.9978V15H15V8Z"/>
</mask>
<path d="M8 1L9.06066 -0.0606602L8 -1.12132L6.93934 -0.0606601L8 1ZM15 8H16.5V7.37868L16.0607 6.93934L15 8ZM1 8L-0.0606602 6.93934L-0.5 7.37868V8H1ZM1 15H-0.5V16.5H1V15ZM7.0022 15V16.5H8.5022V15H7.0022ZM7.0022 10V8.5H5.5022V10H7.0022ZM8.9978 10H10.4978V8.5H8.9978V10ZM8.9978 15H7.4978V16.5H8.9978V15ZM15 15V16.5H16.5V15H15ZM6.93934 2.06066L13.9393 9.06066L16.0607 6.93934L9.06066 -0.0606602L6.93934 2.06066ZM2.06066 9.06066L9.06066 2.06066L6.93934 -0.0606601L-0.0606602 6.93934L2.06066 9.06066ZM-0.5 8V15H2.5V8H-0.5ZM1 16.5H7.0022V13.5H1V16.5ZM8.5022 15V10H5.5022V15H8.5022ZM7.0022 11.5H8.9978V8.5H7.0022V11.5ZM7.4978 10V15H10.4978V10H7.4978ZM8.9978 16.5H15V13.5H8.9978V16.5ZM16.5 15V8H13.5V15H16.5Z" fill="#141414" mask="url(#path-1-inside-1_15_2638)"/>
</svg>
