<svg width="16" height="16" viewBox="0 0 16 16" fill="none" xmlns="http://www.w3.org/2000/svg">
<path d="M6.25 11.92L7.24998 10.1797V11.92H6.25Z" fill="#141414"/>
<path fill-rule="evenodd" clip-rule="evenodd" d="M8 13.5C11.0376 13.5 13.5 11.0376 13.5 8C13.5 4.96243 11.0376 2.5 8 2.5C4.96243 2.5 2.5 4.96243 2.5 8C2.5 11.0376 4.96243 13.5 8 13.5ZM8 15C11.866 15 15 11.866 15 8C15 4.13401 11.866 1 8 1C4.13401 1 1 4.13401 1 8C1 11.866 4.13401 15 8 15Z" fill="#141414"/>
<path d="M9 5.07922C9 5.63151 8.55228 6.07922 8 6.07922C7.44772 6.07922 7 5.63151 7 5.07922C7 4.52694 7.44772 4.07922 8 4.07922C8.55228 4.07922 9 4.52694 9 5.07922Z" fill="#141414"/>
<path d="M7.25 6.92072H8.75V11.9207L7.24998 11.92L7.25 6.92072Z" fill="#141414"/>
</svg>
