<svg width="16" height="16" viewBox="0 0 16 16" fill="none" xmlns="http://www.w3.org/2000/svg">
<rect x="9.2334" y="5.70599" width="1.5" height="4.9884" transform="rotate(45 9.2334 5.70599)" fill="#141414"/>
<path fill-rule="evenodd" clip-rule="evenodd" d="M9.69668 3.12156L12.8787 6.30354L10.6518 8.53044L11.7124 9.5911L13.9393 7.3642L15 6.30354L13.9393 5.24288L10.7573 2.0609L9.69668 1.00024L8.63601 2.0609L6.40912 4.2878L7.46978 5.34846L9.69668 3.12156ZM5.34846 7.46978L4.2878 6.40912L2.06115 8.63577L1.00049 9.69643L2.06115 10.7571L5.24313 13.9391L6.30379 14.9997L7.36445 13.9391L9.5911 11.7124L8.53044 10.6518L6.30379 12.8784L3.12181 9.69643L5.34846 7.46978Z" fill="#141414"/>
</svg>
