<svg width="16" height="16" viewBox="0 0 16 16" fill="none" xmlns="http://www.w3.org/2000/svg">
<mask id="path-1-inside-1_15_2710" fill="white">
<path fill-rule="evenodd" clip-rule="evenodd" d="M15 8.00049C14.0878 9.21466 12.6356 10 11 10C8.23858 10 6 7.76142 6 5C6 3.3644 6.78534 1.91223 7.99951 1C4.13374 1.00026 1 4.13417 1 8C1 11.866 4.13401 15 8 15C11.8658 15 14.9997 11.8663 15 8.00049Z"/>
</mask>
<path d="M15 8.00049L16.5 8.00059L16.5003 3.5064L13.8008 7.09948L15 8.00049ZM7.99951 1L8.90052 2.19924L12.4936 -0.500306L7.99941 -0.5L7.99951 1ZM13.8008 7.09948C13.1597 7.95278 12.144 8.5 11 8.5V11.5C13.1272 11.5 15.0159 10.4765 16.1992 8.9015L13.8008 7.09948ZM11 8.5C9.067 8.5 7.5 6.933 7.5 5H4.5C4.5 8.58985 7.41015 11.5 11 11.5V8.5ZM7.5 5C7.5 3.85605 8.04722 2.84034 8.90052 2.19924L7.0985 -0.19924C5.52346 0.984116 4.5 2.87275 4.5 5H7.5ZM2.5 8C2.5 4.96256 4.96223 2.50021 7.99961 2.5L7.99941 -0.5C3.30526 -0.49968 -0.5 3.30578 -0.5 8H2.5ZM8 13.5C4.96243 13.5 2.5 11.0376 2.5 8H-0.5C-0.5 12.6944 3.30558 16.5 8 16.5V13.5ZM13.5 8.00039C13.4998 11.0378 11.0374 13.5 8 13.5V16.5C12.6942 16.5 16.4997 12.6947 16.5 8.00059L13.5 8.00039Z" fill="#141414" mask="url(#path-1-inside-1_15_2710)"/>
</svg>
