<svg width="16" height="16" viewBox="0 0 16 16" fill="none" xmlns="http://www.w3.org/2000/svg">
<path fill-rule="evenodd" clip-rule="evenodd" d="M13.5 8C13.5 11.0376 11.0376 13.5 8 13.5C6.75163 13.5 5.60041 13.0841 4.67733 12.3833L12.3833 4.67733C13.0841 5.60041 13.5 6.75163 13.5 8ZM3.61667 11.3226L11.3226 3.61667C10.3995 2.91589 9.24834 2.5 8 2.5C4.96243 2.5 2.5 4.96243 2.5 8C2.5 9.24834 2.91589 10.3995 3.61667 11.3226ZM15 8C15 11.866 11.866 15 8 15C4.13401 15 1 11.866 1 8C1 4.13401 4.13401 1 8 1C11.866 1 15 4.13401 15 8Z" fill="#141414"/>
</svg>
