<svg width="16" height="16" viewBox="0 0 16 16" fill="none" xmlns="http://www.w3.org/2000/svg">
<path d="M9.75 1H11.25V3.3728H9.75V1Z" fill="#141414"/>
<path d="M6.25 15L4.75 15L4.75 12.6272L6.25 12.6272L6.25 15Z" fill="#141414"/>
<path d="M9.75 6.65106H11.25V15H9.75V6.65106Z" fill="#141414"/>
<path d="M6.25 9.34894L4.75 9.34894L4.75 1L6.25 1L6.25 9.34894Z" fill="#141414"/>
<path fill-rule="evenodd" clip-rule="evenodd" d="M10.5 6.5C11.0523 6.5 11.5 6.05228 11.5 5.5C11.5 4.94772 11.0523 4.5 10.5 4.5C9.94772 4.5 9.5 4.94772 9.5 5.5C9.5 6.05228 9.94772 6.5 10.5 6.5ZM10.5 8C11.8807 8 13 6.88071 13 5.5C13 4.11929 11.8807 3 10.5 3C9.11929 3 8 4.11929 8 5.5C8 6.88071 9.11929 8 10.5 8Z" fill="#141414"/>
<path fill-rule="evenodd" clip-rule="evenodd" d="M5.5 9.5C4.94772 9.5 4.5 9.94771 4.5 10.5C4.5 11.0523 4.94772 11.5 5.5 11.5C6.05228 11.5 6.5 11.0523 6.5 10.5C6.5 9.94772 6.05229 9.5 5.5 9.5ZM5.5 8C4.11929 8 3 9.11929 3 10.5C3 11.8807 4.11929 13 5.5 13C6.88071 13 8 11.8807 8 10.5C8 9.11929 6.88071 8 5.5 8Z" fill="#141414"/>
</svg>
