<svg width="16" height="16" viewBox="0 0 16 16" fill="none" xmlns="http://www.w3.org/2000/svg">
<mask id="path-1-inside-1_144_55309" fill="white">
<path fill-rule="evenodd" clip-rule="evenodd" d="M8 11C10.7614 11 13 8.76142 13 6C13 3.23858 10.7614 1 8 1C5.23858 1 3 3.23858 3 6V15L6.04087 10.6016C6.6425 10.8581 7.30468 11 8 11Z"/>
</mask>
<path d="M3 15H1.5V19.8073L4.23384 15.853L3 15ZM6.04087 10.6016L6.62909 9.22174L5.50311 8.74175L4.80704 9.74857L6.04087 10.6016ZM11.5 6C11.5 7.933 9.933 9.5 8 9.5V12.5C11.5899 12.5 14.5 9.58985 14.5 6H11.5ZM8 2.5C9.933 2.5 11.5 4.067 11.5 6H14.5C14.5 2.41015 11.5899 -0.5 8 -0.5V2.5ZM4.5 6C4.5 4.067 6.067 2.5 8 2.5V-0.5C4.41015 -0.5 1.5 2.41015 1.5 6H4.5ZM4.5 15V6H1.5V15H4.5ZM4.80704 9.74857L1.76616 14.147L4.23384 15.853L7.27471 11.4546L4.80704 9.74857ZM8 9.5C7.51051 9.5 7.04815 9.40038 6.62909 9.22174L5.45265 11.9815C6.23686 12.3158 7.09885 12.5 8 12.5V9.5Z" fill="#141414" mask="url(#path-1-inside-1_144_55309)"/>
</svg>
