<svg width="16" height="16" viewBox="0 0 16 16" fill="none" xmlns="http://www.w3.org/2000/svg">
<path d="M7.27583 7.66351L8.33649 8.72417L2.06066 15L1 13.9393L7.27583 7.66351Z" fill="#141414"/>
<path fill-rule="evenodd" clip-rule="evenodd" d="M10.5 8.5C12.1569 8.5 13.5 7.15685 13.5 5.5C13.5 3.84315 12.1569 2.5 10.5 2.5C8.84316 2.5 7.50001 3.84315 7.50001 5.5C7.50001 7.15685 8.84316 8.5 10.5 8.5ZM10.5 10C12.9853 10 15 7.98528 15 5.5C15 3.01472 12.9853 1 10.5 1C8.01473 1 6.00001 3.01472 6.00001 5.5C6.00001 7.98528 8.01473 10 10.5 10Z" fill="#141414"/>
</svg>
