<svg width="16" height="16" viewBox="0 0 16 16" fill="none" xmlns="http://www.w3.org/2000/svg">
<path fill-rule="evenodd" clip-rule="evenodd" d="M7.25 1H8.75V3H7.25V1ZM8 10.5C9.38071 10.5 10.5 9.38071 10.5 8C10.5 6.61929 9.38071 5.5 8 5.5C6.61929 5.5 5.5 6.61929 5.5 8C5.5 9.38071 6.61929 10.5 8 10.5ZM8 12C10.2091 12 12 10.2091 12 8C12 5.79086 10.2091 4 8 4C5.79086 4 4 5.79086 4 8C4 10.2091 5.79086 12 8 12ZM3.58068 2.51991L2.52002 3.58057L3.93423 4.99478L4.99489 3.93412L3.58068 2.51991ZM1 8.75V7.25H3V8.75H1ZM2.51991 12.4194L3.58057 13.4801L4.99478 12.0659L3.93412 11.0052L2.51991 12.4194ZM8.75 13V15H7.25V13H8.75ZM12.0658 11.0052L11.0051 12.0659L12.4193 13.4801L13.48 12.4194L12.0658 11.0052ZM13 7.25H15V8.75H13V7.25ZM11.0053 3.93415L12.0659 4.99481L13.4801 3.5806L12.4195 2.51994L11.0053 3.93415Z" fill="#141414"/>
</svg>
