<svg width="16" height="16" viewBox="0 0 16 16" fill="none" xmlns="http://www.w3.org/2000/svg">
<path fill-rule="evenodd" clip-rule="evenodd" d="M9.5 4C9.5 4.82843 8.82843 5.5 8 5.5C7.17157 5.5 6.5 4.82843 6.5 4C6.5 3.17157 7.17157 2.5 8 2.5C8.82843 2.5 9.5 3.17157 9.5 4ZM11 4C11 5.65685 9.65685 7 8 7C6.34315 7 5 5.65685 5 4C5 2.34315 6.34315 1 8 1C9.65685 1 11 2.34315 11 4ZM13.0813 12.8952C13.1632 13.093 13.2334 13.2949 13.2915 13.5H2.7085C2.76663 13.2949 2.83676 13.093 2.91866 12.8952C3.19506 12.228 3.60019 11.6216 4.11091 11.1109C4.62163 10.6002 5.22795 10.1951 5.89524 9.91866C6.56253 9.64226 7.27773 9.5 8 9.5C8.72227 9.5 9.43747 9.64226 10.1048 9.91866C10.772 10.1951 11.3784 10.6002 11.8891 11.1109C12.3998 11.6216 12.8049 12.228 13.0813 12.8952ZM14.4672 12.3212C14.6255 12.7034 14.7492 13.0979 14.8374 13.5C14.9452 13.9915 15 14.4944 15 15H13.5H2.5H1C1 14.4944 1.05477 13.9915 1.1626 13.5C1.25082 13.0979 1.37455 12.7034 1.53284 12.3212C1.88463 11.4719 2.40024 10.7003 3.05025 10.0503C3.70026 9.40024 4.47194 8.88463 5.32122 8.53284C6.17049 8.18106 7.08075 8 8 8C8.91925 8 9.8295 8.18106 10.6788 8.53284C11.5281 8.88463 12.2997 9.40024 12.9497 10.0503C13.5998 10.7003 14.1154 11.4719 14.4672 12.3212Z" fill="#141414"/>
</svg>
