<svg width="134" height="30" viewBox="0 0 134 30" fill="none" xmlns="http://www.w3.org/2000/svg">
<g clip-path="url(#clip0_2_3)">
<path d="M29.7975 13.2904V16.3524L22.3444 26.6391H29.8271V29.7303H17.9333V26.6683L25.3864 16.3815H17.9333V13.2904H29.7975Z" fill="#141414"/>
<path d="M33.1503 22.7752L33.1799 20.0413H42.3575C42.3575 19.4435 42.2391 18.9113 42.0096 18.4374C41.7802 17.9636 41.4693 17.548 41.0771 17.2054C40.6848 16.8554 40.2259 16.6003 39.7004 16.4326C39.1749 16.2649 38.6346 16.1774 38.0721 16.1774C37.2284 16.1774 36.4809 16.3743 35.837 16.7606C35.1931 17.147 34.6824 17.6865 34.2975 18.3791C33.9126 19.0717 33.7276 19.9174 33.7276 20.9089V22.243C33.7276 23.1908 33.9274 24.0146 34.3197 24.7145C34.712 25.4144 35.2449 25.9393 35.9184 26.3038C36.5919 26.6683 37.332 26.8506 38.1388 26.8506C39.1453 26.8506 39.9225 26.6391 40.4776 26.2236C41.0327 25.808 41.4693 25.3123 41.7876 24.7363H45.8953C45.614 25.706 45.1256 26.5881 44.4298 27.3828C43.7341 28.1774 42.8682 28.8117 41.8172 29.2856C40.7662 29.7594 39.5672 30 38.198 30C36.5697 30 35.1264 29.6501 33.883 28.9575C32.6396 28.2649 31.6478 27.2807 30.9225 25.9976C30.1972 24.7218 29.8345 23.2272 29.8345 21.5213C29.8345 19.8153 30.1898 18.2698 30.8929 17.0012C31.596 15.7327 32.5804 14.7558 33.8386 14.0705C35.0968 13.3852 36.5475 13.0425 38.198 13.0425C39.8485 13.0425 41.1881 13.3779 42.4093 14.0559C43.6305 14.7339 44.5853 15.6744 45.2884 16.8919C45.9915 18.1094 46.3468 19.5237 46.3468 21.1276C46.3468 21.3828 46.3394 21.6598 46.3172 21.9441C46.295 22.2284 46.2654 22.5055 46.2283 22.7606H33.1577L33.1503 22.7752Z" fill="#141414"/>
<path d="M47.3977 29.7302V13.2904H51.2316V29.7302H47.3977ZM59.1732 29.7302V20.6027C59.1732 19.1737 58.8105 18.1021 58.0852 17.373C57.3598 16.6513 56.4051 16.2867 55.2209 16.2867C54.4141 16.2867 53.7184 16.4471 53.1263 16.7606C52.5342 17.0741 52.0679 17.5553 51.7349 18.2041C51.4018 18.8457 51.239 19.6549 51.239 20.6245L50.3952 16.7898C50.6395 16.0535 51.0466 15.4046 51.6313 14.8287C52.216 14.2527 52.8969 13.8153 53.6814 13.5091C54.4659 13.2029 55.3245 13.0498 56.2497 13.0498C57.5375 13.0498 58.6921 13.3123 59.706 13.8372C60.72 14.3621 61.5194 15.1494 62.0893 16.1993C62.6592 17.2491 62.9478 18.5395 62.9478 20.0632V29.7229H59.1732V29.7302Z" fill="#141414"/>
<path d="M71.9922 29.7303V13.2904H75.826V29.7303H71.9922ZM75.826 21.3172L74.738 20.0705C74.738 19.1009 74.8713 18.1896 75.1303 17.3512C75.3893 16.5128 75.7816 15.7619 76.2923 15.1057C76.803 14.4496 77.4469 13.9466 78.224 13.5893C79.0012 13.2321 79.8893 13.0571 80.8959 13.0571V16.9794H79.8671C79.2454 16.9794 78.6829 17.0523 78.1796 17.2054C77.6763 17.3585 77.2545 17.5918 76.914 17.9198C76.5735 18.2479 76.3071 18.6853 76.1147 19.2394C75.9222 19.7935 75.826 20.486 75.826 21.3244V21.3172Z" fill="#141414"/>
<path d="M84.2191 22.7752L84.2487 20.0413H93.4262C93.4262 19.4435 93.3078 18.9113 93.0784 18.4374C92.8489 17.9636 92.5381 17.548 92.1458 17.2054C91.7536 16.8554 91.2947 16.6003 90.7692 16.4326C90.2437 16.2649 89.7034 16.1774 89.1409 16.1774C88.2972 16.1774 87.5496 16.3743 86.9057 16.7606C86.2618 17.147 85.7511 17.6865 85.3663 18.3791C84.9814 19.0717 84.7964 19.9174 84.7964 20.9089V22.243C84.7964 23.1908 84.9962 24.0146 85.3885 24.7145C85.7807 25.4144 86.3136 25.9393 86.9871 26.3038C87.6607 26.6683 88.4008 26.8506 89.2075 26.8506C90.2141 26.8506 90.9912 26.6391 91.5463 26.2236C92.1014 25.808 92.5381 25.3123 92.8563 24.7363H96.964C96.6828 25.706 96.1943 26.5881 95.4986 27.3828C94.8029 28.1774 93.9369 28.8117 92.8859 29.2856C91.835 29.7594 90.636 30 89.2667 30C87.6384 30 86.1952 29.6501 84.9518 28.9575C83.7084 28.2649 82.7166 27.2807 81.9913 25.9976C81.266 24.7218 80.9033 23.2272 80.9033 21.5213C80.9033 19.8153 81.2586 18.2698 81.9617 17.0012C82.6648 15.7327 83.6492 14.7558 84.9074 14.0705C86.1656 13.3852 87.6162 13.0425 89.2667 13.0425C90.9172 13.0425 92.2568 13.3779 93.4781 14.0559C94.6993 14.7339 95.654 15.6744 96.3571 16.8919C97.0603 18.1094 97.4155 19.5237 97.4155 21.1276C97.4155 21.3828 97.4081 21.6598 97.3859 21.9441C97.3637 22.2284 97.3341 22.5055 97.2971 22.7606H84.2265L84.2191 22.7752Z" fill="#141414"/>
<path d="M98.4665 21.463C98.4665 19.757 98.8069 18.2698 99.4953 17.0012C100.176 15.7327 101.109 14.7558 102.286 14.0705C103.462 13.3852 104.765 13.0425 106.193 13.0425C107.119 13.0425 107.948 13.1665 108.665 13.4144C109.391 13.6622 110.02 13.983 110.553 14.384C111.086 14.7777 111.522 15.2078 111.863 15.6598V13.2831H115.697V29.723H111.863V27.3171C111.522 27.791 111.071 28.2284 110.523 28.6221C109.968 29.0158 109.332 29.3439 108.606 29.6063C107.881 29.8688 107.059 29.9927 106.134 29.9927C104.743 29.9927 103.462 29.6282 102.286 28.9065C101.109 28.1847 100.176 27.1859 99.4953 25.9028C98.8069 24.627 98.4665 23.1397 98.4665 21.4557V21.463ZM111.87 21.5286C111.87 20.3986 111.641 19.4435 111.189 18.6707C110.738 17.8979 110.153 17.3147 109.443 16.9283C108.725 16.5419 107.948 16.3451 107.104 16.3451C106.319 16.3451 105.564 16.5419 104.839 16.9283C104.114 17.3147 103.529 17.8834 103.07 18.6343C102.619 19.3852 102.389 20.3257 102.389 21.4557C102.389 22.5857 102.619 23.5043 103.07 24.277C103.522 25.0498 104.114 25.6476 104.839 26.0632C105.564 26.4788 106.319 26.6902 107.104 26.6902C107.948 26.6902 108.732 26.4933 109.443 26.0924C110.153 25.6987 110.738 25.1082 111.189 24.3208C111.641 23.5407 111.87 22.6003 111.87 21.514V21.5286Z" fill="#141414"/>
<path d="M116.77 21.463C116.77 19.757 117.11 18.2698 117.799 17.0012C118.48 15.7327 119.412 14.7558 120.589 14.0705C121.766 13.3852 123.076 13.0425 124.526 13.0425C125.274 13.0425 125.992 13.1446 126.702 13.356C127.405 13.5674 128.057 13.8591 128.664 14.2309C129.271 14.61 129.774 15.0547 130.174 15.565V7.71326H134.007V29.7157H130.174V27.2807C129.833 27.7764 129.382 28.2284 128.834 28.6367C128.279 29.045 127.65 29.373 126.932 29.6209C126.214 29.8688 125.407 29.9927 124.504 29.9927C123.076 29.9927 121.773 29.6282 120.596 28.9065C119.419 28.1847 118.487 27.1859 117.806 25.9028C117.118 24.627 116.777 23.1397 116.777 21.4557L116.77 21.463ZM130.166 21.5286C130.166 20.3986 129.937 19.4435 129.485 18.6707C129.034 17.8979 128.449 17.3147 127.739 16.9283C127.021 16.5419 126.243 16.3451 125.4 16.3451C124.615 16.3451 123.86 16.5419 123.135 16.9283C122.41 17.3147 121.825 17.8834 121.366 18.6343C120.915 19.3852 120.685 20.3257 120.685 21.4557C120.685 22.5857 120.915 23.5043 121.366 24.277C121.817 25.0498 122.41 25.6476 123.135 26.0632C123.86 26.4788 124.615 26.6902 125.4 26.6902C126.243 26.6902 127.028 26.4933 127.739 26.0924C128.449 25.6987 129.034 25.1082 129.485 24.3208C129.937 23.5407 130.166 22.6003 130.166 21.514V21.5286Z" fill="#141414"/>
<path d="M69.868 25.0061H65.072V29.7303H69.868V25.0061Z" fill="#141414"/>
<path d="M15.8091 13.2904H0V29.7303H15.8091V13.2904Z" fill="#141414"/>
<path d="M15.8091 0H0V5.18348H15.8091V0Z" fill="#141414"/>
<path d="M15.8091 6.64154H0V11.825H15.8091V6.64154Z" fill="#141414"/>
</g>
<defs>
<clipPath id="clip0_2_3">
<rect width="134" height="30" fill="white"/>
</clipPath>
</defs>
</svg>
