<svg width="24" height="24" viewBox="0 0 24 24" fill="none" xmlns="http://www.w3.org/2000/svg">
<path fill-rule="evenodd" clip-rule="evenodd" d="M12 20C16.4183 20 20 16.4183 20 12C20 7.58172 16.4183 4 12 4C7.58172 4 4 7.58172 4 12C4 16.4183 7.58172 20 12 20ZM12 22C17.5228 22 22 17.5228 22 12C22 6.47715 17.5228 2 12 2C6.47715 2 2 6.47715 2 12C2 17.5228 6.47715 22 12 22Z" fill="#141414"/>
<path fill-rule="evenodd" clip-rule="evenodd" d="M16.2426 16.2426C15.1174 17.3679 13.5913 18 12 18C10.4087 18 8.88258 17.3679 7.75736 16.2426C6.63214 15.1174 6 13.5913 6 12H8C8 13.0609 8.42143 14.0783 9.17157 14.8284C9.92172 15.5786 10.9391 16 12 16C13.0609 16 14.0783 15.5786 14.8284 14.8284C15.5786 14.0783 16 13.0609 16 12H18C18 13.5913 17.3679 15.1174 16.2426 16.2426Z" fill="#141414"/>
<path d="M10.6431 8.75C10.6431 9.57843 9.97149 10.25 9.14307 10.25C8.31464 10.25 7.64307 9.57843 7.64307 8.75C7.64307 7.92157 8.31464 7.25 9.14307 7.25C9.97149 7.25 10.6431 7.92157 10.6431 8.75Z" fill="#141414"/>
<path d="M16.3573 8.75C16.3573 9.57843 15.6857 10.25 14.8573 10.25C14.0289 10.25 13.3573 9.57843 13.3573 8.75C13.3573 7.92157 14.0289 7.25 14.8573 7.25C15.6857 7.25 16.3573 7.92157 16.3573 8.75Z" fill="#141414"/>
</svg>
