<svg width="24" height="24" viewBox="0 0 24 24" fill="none" xmlns="http://www.w3.org/2000/svg">
<mask id="path-1-inside-1_209_57462" fill="white">
<path fill-rule="evenodd" clip-rule="evenodd" d="M19 2.00012H5V22H5.17494L12 14.2L18.8251 22H19V2.00012Z"/>
</mask>
<path d="M5 2.00012V0.500122H3.5V2.00012H5ZM19 2.00012H20.5V0.500122H19V2.00012ZM5 22H3.5V23.5H5V22ZM5.17494 22V23.5H5.85559L6.3038 22.9878L5.17494 22ZM12 14.2L13.1289 13.2122L12 11.9221L10.8711 13.2122L12 14.2ZM18.8251 22L17.6962 22.9878L18.1444 23.5H18.8251V22ZM19 22V23.5H20.5V22H19ZM5 3.50012H19V0.500122H5V3.50012ZM6.5 22V2.00012H3.5V22H6.5ZM5.17494 20.5H5V23.5H5.17494V20.5ZM10.8711 13.2122L4.04607 21.0123L6.3038 22.9878L13.1289 15.1877L10.8711 13.2122ZM19.9539 21.0123L13.1289 13.2122L10.8711 15.1877L17.6962 22.9878L19.9539 21.0123ZM19 20.5H18.8251V23.5H19V20.5ZM17.5 2.00012V22H20.5V2.00012H17.5Z" fill="#141414" mask="url(#path-1-inside-1_209_57462)"/>
</svg>
