<svg width="24" height="24" viewBox="0 0 24 24" fill="none" xmlns="http://www.w3.org/2000/svg">
<path fill-rule="evenodd" clip-rule="evenodd" d="M12 10.6261L7.8007 6.26579C6.84292 5.27129 5.26029 5.24153 4.26579 6.19931C3.27129 7.15709 3.24153 8.73972 4.19931 9.73422L12 17.8339L19.8007 9.73422C20.7585 8.73972 20.7287 7.15709 19.7342 6.19931C18.7397 5.24153 17.1571 5.27129 16.1993 6.26579L12 10.6261ZM12 19.9963L3.11889 10.7747C1.58645 9.18356 1.63407 6.65134 3.22526 5.11889C4.81645 3.58645 7.34867 3.63407 8.88111 5.22526L12 8.46371L15.1189 5.22526C16.6513 3.63407 19.1836 3.58645 20.7747 5.11889C22.3659 6.65134 22.4136 9.18356 20.8811 10.7747L12 19.9963Z" fill="#141414"/>
</svg>
