<svg width="24" height="24" viewBox="0 0 24 24" fill="none" xmlns="http://www.w3.org/2000/svg">
<path fill-rule="evenodd" clip-rule="evenodd" d="M12 11.3469L7.44056 6.61263C6.67434 5.81704 5.40823 5.79323 4.61263 6.55945C3.81704 7.32567 3.79323 8.59178 4.55945 9.38738L12 17.1132L19.4406 9.38738C20.2068 8.59178 20.183 7.32567 19.3874 6.55945L20.7748 5.11889C22.3659 6.65134 22.4136 9.18356 20.8811 10.7747L12 19.9963L3.11889 10.7747C1.58645 9.18356 1.63407 6.65134 3.22526 5.11889C4.81645 3.58645 7.34867 3.63407 8.88111 5.22526L12 8.46371L15.1189 5.22526C16.6513 3.63407 19.1836 3.58645 20.7748 5.11889L19.3874 6.55945C18.5918 5.79323 17.3257 5.81704 16.5595 6.61263L12 11.3469Z" fill="#141414"/>
</svg>
