<svg width="24" height="24" viewBox="0 0 24 24" fill="none" xmlns="http://www.w3.org/2000/svg">
<path fill-rule="evenodd" clip-rule="evenodd" d="M19.8814 7.65453L16.3459 4.119L12.3537 8.11123L11.293 7.05057L15.2852 3.05834L16.3459 1.99768L17.4066 3.05834L20.9421 6.59387L22.0027 7.65453L20.9421 8.7152L16.9499 12.7074L15.8892 11.6468L19.8814 7.65453ZM7.05036 11.2932L8.11102 12.3539L4.12181 16.3431L7.65734 19.8786L11.6466 15.8894L12.7072 16.9501L8.718 20.9393L7.65734 21.9999L6.59668 20.9393L3.06115 17.4037L2.00049 16.3431L3.06115 15.2824L7.05036 11.2932ZM15.3585 9.7019L14.2979 8.64124L8.641 14.2981L9.70166 15.3587L15.3585 9.7019Z" fill="#141414"/>
</svg>
