<svg width="24" height="24" viewBox="0 0 24 24" fill="none" xmlns="http://www.w3.org/2000/svg">
<path fill-rule="evenodd" clip-rule="evenodd" d="M19.171 9.07107L14.9284 4.82843L11.9997 7.75707L10.5855 6.34285L13.5141 3.41421L14.9284 2L16.3426 3.41421L20.5852 7.65685L21.9994 9.07107L20.5852 10.4853L17.6566 13.4139L16.2424 11.9997L19.171 9.07107ZM6.34286 10.5855L7.75707 11.9997L4.83087 14.9259L9.07351 19.1686L11.9997 16.2423L13.4139 17.6566L10.4877 20.5828L9.07351 21.997L7.6593 20.5828L3.41665 16.3401L2.00244 14.9259L3.41665 13.5117L6.34286 10.5855ZM15.5358 9.87868L14.1215 8.46446L8.46469 14.1213L9.8789 15.5355L15.5358 9.87868Z" fill="#141414"/>
</svg>
