<svg width="24" height="24" viewBox="0 0 24 24" fill="none" xmlns="http://www.w3.org/2000/svg">
<path fill-rule="evenodd" clip-rule="evenodd" d="M19.9678 14.9671C19.0437 15.3115 18.0436 15.5 17 15.5C12.3056 15.5 8.5 11.6944 8.5 7C8.5 5.95639 8.68845 4.95628 9.03287 4.03223C5.80157 5.23604 3.5 8.34924 3.5 12C3.5 16.6944 7.30558 20.5 12 20.5C15.6508 20.5 18.764 18.1984 19.9678 14.9671ZM20.4289 13.1041C19.4156 13.6746 18.2458 14 17 14C13.134 14 10 10.866 10 7C10 5.75422 10.3254 4.58444 10.8959 3.57105C11.1989 3.03293 11.5709 2.53891 12 2.10102C12.0332 2.06717 12.0667 2.03366 12.1005 2.00049C12.067 2.00017 12.0335 2 12 2C11.3086 2 10.6336 2.07017 9.98172 2.20377C5.42635 3.13736 2 7.16854 2 12C2 17.5228 6.47715 22 12 22C16.8315 22 20.8626 18.5737 21.7962 14.0183C21.9298 13.3664 22 12.6914 22 12C22 11.9665 21.9998 11.933 21.9995 11.8995C21.9663 11.9333 21.9328 11.9668 21.899 12C21.4611 12.4291 20.9671 12.8011 20.4289 13.1041Z" fill="#141414"/>
</svg>
