<svg width="24" height="24" viewBox="0 0 24 24" fill="none" xmlns="http://www.w3.org/2000/svg">
<path fill-rule="evenodd" clip-rule="evenodd" d="M11.4157 19.9791C13.6549 20.142 15.9474 19.3663 17.6569 17.6569C20.781 14.5327 20.781 9.46734 17.6569 6.34315C14.5327 3.21895 9.46734 3.21895 6.34315 6.34315C4.63365 8.05264 3.85797 10.3451 4.02087 12.5843L8.4052 10.1583C11.919 8.2139 15.7861 12.0811 13.8418 15.5948L11.4157 19.9791ZM10.371 21.8672C13.4418 22.3715 16.7027 21.4395 19.0711 19.0711C22.9763 15.1658 22.9763 8.83417 19.0711 4.92893C15.1658 1.02369 8.83417 1.02369 4.92893 4.92893C2.56051 7.29736 1.62847 10.5582 2.13282 13.6291C2.2437 14.3042 2.42403 14.9702 2.67379 15.6155L9.37353 11.9082C11.1304 10.936 13.064 12.8696 12.0918 14.6265L8.38453 21.3262C9.02982 21.576 9.6958 21.7563 10.371 21.8672Z" fill="#141414"/>
<path d="M15.4392 9.31802C16.025 8.73223 16.9748 8.73223 17.5606 9.31802C18.1464 9.9038 18.1464 10.8535 17.5606 11.4393C16.9748 12.0251 16.025 12.0251 15.4392 11.4393C14.8535 10.8535 14.8535 9.9038 15.4392 9.31802Z" fill="#141414"/>
<path d="M15.4392 13.318C16.025 12.7322 16.9748 12.7322 17.5606 13.318C18.1464 13.9038 18.1464 14.8535 17.5606 15.4393C16.9748 16.0251 16.025 16.0251 15.4392 15.4393C14.8535 14.8535 14.8535 13.9038 15.4392 13.318Z" fill="#141414"/>
<path d="M12.3274 6.31802C12.9132 5.73223 13.863 5.73223 14.4488 6.31802C15.0345 6.9038 15.0345 7.85355 14.4488 8.43934C13.863 9.02512 12.9132 9.02512 12.3274 8.43934C11.7416 7.85355 11.7416 6.9038 12.3274 6.31802Z" fill="#141414"/>
<path d="M8.0847 6.31802C8.67048 5.73223 9.62023 5.73223 10.206 6.31802C10.7918 6.9038 10.7918 7.85355 10.206 8.43934C9.62023 9.02512 8.67048 9.02512 8.0847 8.43934C7.49891 7.85355 7.49891 6.9038 8.0847 6.31802Z" fill="#141414"/>
</svg>
