<svg width="24" height="24" viewBox="0 0 24 24" fill="none" xmlns="http://www.w3.org/2000/svg">
<path fill-rule="evenodd" clip-rule="evenodd" d="M10.6181 20.3878C13.2292 20.8157 15.9992 20.0216 18.0104 18.0103C21.3299 14.6909 21.3299 9.30899 18.0104 5.98953C14.691 2.67008 9.30905 2.67008 5.98959 5.98953C3.97836 8.00076 3.18426 10.7708 3.61214 13.3819L8.64728 10.5957C11.7219 8.89438 15.1056 12.2781 13.4043 15.3527L10.6181 20.3878ZM9.85423 21.7683C13.0717 22.4719 16.5693 21.5728 19.0711 19.071C22.9763 15.1658 22.9763 8.83411 19.0711 4.92887C15.1658 1.02363 8.83417 1.02363 4.92893 4.92887C2.42714 7.43066 1.52806 10.9282 2.23168 14.1458C2.34062 14.644 2.48799 15.1354 2.67379 15.6155L9.37353 11.9082C11.1304 10.936 13.064 12.8695 12.0918 14.6264L8.38453 21.3262C8.86456 21.512 9.35604 21.6593 9.85423 21.7683ZM15.8633 9.90459C16.2538 9.51407 16.887 9.51407 17.2775 9.90459C17.6681 10.2951 17.6681 10.9283 17.2775 11.3188C16.887 11.7093 16.2538 11.7093 15.8633 11.3188C15.4728 10.9283 15.4728 10.2951 15.8633 9.90459ZM17.2775 14.1472C16.887 13.7567 16.2538 13.7567 15.8633 14.1472C15.4728 14.5378 15.4728 15.1709 15.8633 15.5614C16.2538 15.952 16.887 15.952 17.2775 15.5614C17.6681 15.1709 17.6681 14.5378 17.2775 14.1472ZM12.6813 6.72261C13.0719 6.33209 13.705 6.33209 14.0955 6.72261C14.4861 7.11314 14.4861 7.7463 14.0955 8.13683C13.705 8.52735 13.0719 8.52735 12.6813 8.13683C12.2908 7.7463 12.2908 7.11314 12.6813 6.72261ZM9.85291 6.72261C9.46238 6.33209 8.82922 6.33209 8.43869 6.72261C8.04817 7.11314 8.04817 7.7463 8.43869 8.13683C8.82922 8.52735 9.46238 8.52735 9.85291 8.13683C10.2434 7.7463 10.2434 7.11314 9.85291 6.72261Z" fill="#141414"/>
</svg>
