<svg width="24" height="24" viewBox="0 0 24 24" fill="none" xmlns="http://www.w3.org/2000/svg">
<path fill-rule="evenodd" clip-rule="evenodd" d="M16.5 9.5C17.6046 9.5 18.5 8.60457 18.5 7.5C18.5 6.39543 17.6046 5.5 16.5 5.5C15.3954 5.5 14.5 6.39543 14.5 7.5C14.5 8.60457 15.3954 9.5 16.5 9.5ZM16.5 11C18.433 11 20 9.433 20 7.5C20 5.567 18.433 4 16.5 4C14.567 4 13 5.567 13 7.5C13 9.433 14.567 11 16.5 11Z" fill="#141414"/>
<path fill-rule="evenodd" clip-rule="evenodd" d="M7.5 14.5C6.39543 14.5 5.5 15.3954 5.5 16.5C5.5 17.6046 6.39543 18.5 7.5 18.5C8.60457 18.5 9.5 17.6046 9.5 16.5C9.5 15.3954 8.60457 14.5 7.5 14.5ZM7.5 13C5.567 13 4 14.567 4 16.5C4 18.433 5.567 20 7.5 20C9.433 20 11 18.433 11 16.5C11 14.567 9.433 13 7.5 13Z" fill="#141414"/>
<path d="M15.75 2H17.25V4.5H15.75V2Z" fill="#141414"/>
<path d="M8.25 22L6.75 22L6.75 19.5L8.25 19.5L8.25 22Z" fill="#141414"/>
<path d="M15.75 10.75H17.25V22H15.75V10.75Z" fill="#141414"/>
<path d="M8.25 13.25L6.75 13.25L6.75 2L8.25 2L8.25 13.25Z" fill="#141414"/>
</svg>
