<svg width="24" height="24" viewBox="0 0 24 24" fill="none" xmlns="http://www.w3.org/2000/svg">
<path d="M5 16C5 14.3431 6.34315 13 8 13C9.65686 13 11 14.3431 11 16C11 17.6569 9.65685 19 8 19C6.34315 19 5 17.6569 5 16Z" stroke="#141414" stroke-width="2"/>
<path d="M13.5 8C13.5 6.34315 14.8431 5 16.5 5C18.1569 5 19.5 6.34315 19.5 8C19.5 9.65685 18.1569 11 16.5 11C14.8431 11 13.5 9.65685 13.5 8Z" stroke="#141414" stroke-width="2"/>
<path d="M15.5 2H17.5V4.5H15.5V2Z" fill="#141414"/>
<path d="M9 22L7 22L7 19.5L9 19.5L9 22Z" fill="#141414"/>
<path d="M15.5 10.75H17.5V22H15.5V10.75Z" fill="#141414"/>
<path d="M9 13.25L7 13.25L7 2L9 2L9 13.25Z" fill="#141414"/>
</svg>
