<svg width="24" height="24" viewBox="0 0 24 24" fill="none" xmlns="http://www.w3.org/2000/svg">
<mask id="path-1-inside-1_207_57263" fill="white">
<path fill-rule="evenodd" clip-rule="evenodd" d="M12 18C16.4183 18 20 14.4183 20 10C20 5.58172 16.4183 2 12 2C7.58172 2 4 5.58172 4 10V22L8.15322 17.0161C9.29464 17.6433 10.6057 18 12 18Z"/>
</mask>
<path d="M4 22H2.5V26.1431L5.15233 22.9603L4 22ZM8.15322 17.0161L8.87554 15.7015L7.79221 15.1063L7.00089 16.0559L8.15322 17.0161ZM18.5 10C18.5 13.5899 15.5899 16.5 12 16.5V19.5C17.2467 19.5 21.5 15.2467 21.5 10H18.5ZM12 3.5C15.5899 3.5 18.5 6.41015 18.5 10H21.5C21.5 4.75329 17.2467 0.5 12 0.5V3.5ZM5.5 10C5.5 6.41015 8.41015 3.5 12 3.5V0.5C6.75329 0.5 2.5 4.75329 2.5 10H5.5ZM5.5 22V10H2.5V22H5.5ZM7.00089 16.0559L2.84767 21.0397L5.15233 22.9603L9.30555 17.9764L7.00089 16.0559ZM12 16.5C10.8645 16.5 9.80123 16.2101 8.87554 15.7015L7.4309 18.3308C8.78805 19.0764 10.3468 19.5 12 19.5V16.5Z" fill="#141414" mask="url(#path-1-inside-1_207_57263)"/>
</svg>
