<svg width="24" height="24" viewBox="0 0 24 24" fill="none" xmlns="http://www.w3.org/2000/svg">
<path fill-rule="evenodd" clip-rule="evenodd" d="M20.5001 8C20.5001 10.4853 18.4854 12.5 16.0001 12.5C13.5148 12.5 11.5001 10.4853 11.5001 8C11.5001 5.51472 13.5148 3.5 16.0001 3.5C18.4854 3.5 20.5001 5.51472 20.5001 8ZM22.0001 8C22.0001 11.3137 19.3138 14 16.0001 14C14.6135 14 13.3368 13.5297 12.3208 12.7399L3.06066 22L2 20.9394L11.2602 11.6792C10.4704 10.6632 10.0001 9.38652 10.0001 8C10.0001 4.68629 12.6864 2 16.0001 2C19.3138 2 22.0001 4.68629 22.0001 8Z" fill="#141414"/>
</svg>
