<svg width="24" height="24" viewBox="0 0 24 24" fill="none" xmlns="http://www.w3.org/2000/svg">
<path fill-rule="evenodd" clip-rule="evenodd" d="M4 11V10.896L4.79866 8.5H19.2013L20 10.896V11H4ZM18.5347 6.5L17.7013 4H6.29866L5.46533 6.5H18.5347ZM2 13V11V10.5714L4.85714 2H19.1429L22 10.5714V11V13V20V22H20H4H2V20V13ZM20 13V20H4V13H20ZM7 15.5H12.5V17.5H7V15.5Z" fill="#141414"/>
<path d="M7 15.5H12.5V17.5H7V15.5Z" fill="#141414"/>
<path fill-rule="evenodd" clip-rule="evenodd" d="M2 10.5714L4.85714 2H19.1429L22 10.5714V22H2V10.5714ZM4 11V10.896L4.79866 8.5H19.2013L20 10.896V11H4ZM18.5347 6.5L17.7013 4H6.29866L5.46533 6.5H18.5347ZM20 13V20H4V13H20Z" fill="#141414"/>
</svg>
