<svg width="24" height="24" viewBox="0 0 24 24" fill="none" xmlns="http://www.w3.org/2000/svg">
<path fill-rule="evenodd" clip-rule="evenodd" d="M11.25 2H12.75V4.5H11.25V2ZM4.39868 5.45929L5.45934 4.39863L7.22711 6.1664L6.16645 7.22706L4.39868 5.45929ZM2 11.25V12.75H4.5V11.25H2ZM5.45923 19.6014L4.39857 18.5407L6.16634 16.773L7.227 17.8336L5.45923 19.6014ZM12.75 22V19.5H11.25V22H12.75ZM16.7729 17.8336L17.8336 16.773L19.6014 18.5407L18.5407 19.6014L16.7729 17.8336ZM22 11.25H19.5V12.75H22V11.25ZM17.8337 7.22705L16.7731 6.16639L18.5408 4.39862L19.6015 5.45928L17.8337 7.22705ZM16.5 12C16.5 14.4853 14.4853 16.5 12 16.5C9.51472 16.5 7.5 14.4853 7.5 12C7.5 9.51472 9.51472 7.5 12 7.5C14.4853 7.5 16.5 9.51472 16.5 12ZM18 12C18 15.3137 15.3137 18 12 18C8.68629 18 6 15.3137 6 12C6 8.68629 8.68629 6 12 6C15.3137 6 18 8.68629 18 12Z" fill="#141414"/>
</svg>
