<svg width="24" height="24" viewBox="0 0 24 24" fill="none" xmlns="http://www.w3.org/2000/svg">
<path fill-rule="evenodd" clip-rule="evenodd" d="M10.9999 2H12.9999V4.5H10.9999V2ZM4.22175 5.63604L5.63596 4.22183L7.40373 5.98959L5.98952 7.40381L4.22175 5.63604ZM2 10.9999V12.9999H4.5V10.9999H2ZM5.63609 19.7781L4.22188 18.3639L5.98965 16.5962L7.40386 18.0104L5.63609 19.7781ZM12.9999 22V19.5H10.9999V22H12.9999ZM16.5961 18.0104L18.0103 16.5962L19.7781 18.364L18.3639 19.7782L16.5961 18.0104ZM19.4999 11V13H21.9999V11H19.4999ZM18.0105 7.40381L16.5963 5.9896L18.3641 4.22183L19.7783 5.63605L18.0105 7.40381ZM15.9999 12C15.9999 14.2091 14.2091 16 11.9999 16C9.79079 16 7.99992 14.2091 7.99992 12C7.99992 9.79086 9.79079 8 11.9999 8C14.2091 8 15.9999 9.79086 15.9999 12ZM11.9999 18C15.3136 18 17.9999 15.3137 17.9999 12C17.9999 8.68629 15.3136 6 11.9999 6C8.68622 6 5.99992 8.68629 5.99992 12C5.99992 15.3137 8.68622 18 11.9999 18Z" fill="#141414"/>
</svg>
