<svg width="24" height="24" viewBox="0 0 24 24" fill="none" xmlns="http://www.w3.org/2000/svg">
<path fill-rule="evenodd" clip-rule="evenodd" d="M19.746 20C19.6528 19.6391 19.5343 19.2844 19.391 18.9385C18.989 17.9679 18.3997 17.086 17.6569 16.3431C16.914 15.6003 16.0321 15.011 15.0615 14.609C14.0909 14.2069 13.0506 14 12 14C10.9494 14 9.90914 14.2069 8.93853 14.609C7.96793 15.011 7.08601 15.6003 6.34315 16.3431C5.60028 17.086 5.011 17.9679 4.60896 18.9385C4.4657 19.2844 4.34721 19.6391 4.25403 20H19.746ZM21.798 20C21.6706 19.3761 21.4837 18.7643 21.2388 18.1732C20.7362 16.9599 19.9997 15.8575 19.0711 14.9289C18.1425 14.0003 17.0401 13.2638 15.8268 12.7612C14.6136 12.2587 13.3132 12 12 12C10.6868 12 9.38642 12.2587 8.17317 12.7612C6.95991 13.2638 5.85752 14.0003 4.92893 14.9289C4.00035 15.8575 3.26375 16.9599 2.7612 18.1732C2.51635 18.7643 2.32939 19.3761 2.20204 20C2.16818 20.1659 2.13854 20.3326 2.11314 20.5C2.03799 20.9953 2 21.4967 2 22H22C22 21.4967 21.962 20.9953 21.8869 20.5C21.8615 20.3326 21.8318 20.1659 21.798 20Z" fill="#141414"/>
<path fill-rule="evenodd" clip-rule="evenodd" d="M12 9C13.3807 9 14.5 7.88071 14.5 6.5C14.5 5.11929 13.3807 4 12 4C10.6193 4 9.5 5.11929 9.5 6.5C9.5 7.88071 10.6193 9 12 9ZM16.5 6.5C16.5 8.98528 14.4853 11 12 11C9.51472 11 7.5 8.98528 7.5 6.5C7.5 4.01472 9.51472 2 12 2C14.4853 2 16.5 4.01472 16.5 6.5Z" fill="#141414"/>
</svg>
