<svg width="24" height="24" viewBox="0 0 24 24" fill="none" xmlns="http://www.w3.org/2000/svg">
<path fill-rule="evenodd" clip-rule="evenodd" d="M20.3666 20.5C20.2591 19.9004 20.0872 19.3127 19.853 18.7472C19.4258 17.7159 18.7997 16.7789 18.0104 15.9896C17.2211 15.2003 16.2841 14.5742 15.2528 14.147C14.2215 13.7199 13.1162 13.5 12 13.5C10.8838 13.5 9.77846 13.7199 8.74719 14.147C7.71592 14.5742 6.77889 15.2003 5.98959 15.9896C5.20029 16.7789 4.57419 17.7159 4.14702 18.7472C3.9128 19.3127 3.7409 19.9004 3.6334 20.5L20.3666 20.5ZM21.8869 20.5C21.7659 19.7029 21.5487 18.9215 21.2388 18.1732C20.7362 16.9599 19.9997 15.8575 19.0711 14.9289C18.1425 14.0003 17.0401 13.2638 15.8268 12.7612C14.6136 12.2587 13.3132 12 12 12C10.6868 12 9.38642 12.2587 8.17317 12.7612C6.95991 13.2638 5.85752 14.0003 4.92893 14.9289C4.00035 15.8575 3.26375 16.9599 2.7612 18.1732C2.45125 18.9215 2.23408 19.7029 2.11314 20.5C2.03799 20.9953 2 21.4967 2 22L22 22C22 21.4967 21.962 20.9953 21.8869 20.5Z" fill="#141414"/>
<path fill-rule="evenodd" clip-rule="evenodd" d="M12 9.5C13.6569 9.5 15 8.15685 15 6.5C15 4.84315 13.6569 3.5 12 3.5C10.3431 3.5 9 4.84315 9 6.5C9 8.15685 10.3431 9.5 12 9.5ZM12 11C14.4853 11 16.5 8.98528 16.5 6.5C16.5 4.01472 14.4853 2 12 2C9.51472 2 7.5 4.01472 7.5 6.5C7.5 8.98528 9.51472 11 12 11Z" fill="#141414"/>
</svg>
